<?xml version="1.0" encoding="utf-8"?>
<!-- Generator: Adobe Illustrator 16.0.0, SVG Export Plug-In . SVG Version: 6.00 Build 0)  -->
<!DOCTYPE svg PUBLIC "-//W3C//DTD SVG 1.1//EN" "http://www.w3.org/Graphics/SVG/1.1/DTD/svg11.dtd">
<svg version="1.1" id="Layer_1" xmlns="http://www.w3.org/2000/svg" xmlns:xlink="http://www.w3.org/1999/xlink" x="0px" y="0px"
	 width="51px" height="48px" viewBox="0 0 51 48" enable-background="new 0 0 51 48" xml:space="preserve">
<g>
	<rect fill-rule="evenodd" clip-rule="evenodd" fill="#3B4660" width="51" height="48"/>
	<g>
		<g>
			<g>
				<g>
					<g>
						<path fill-rule="evenodd" clip-rule="evenodd" fill="#FFCB06" d="M20.033,18.303c0-4.567,2.235-8.614,5.667-11.111
							c-2.264-1.646-5.05-2.62-8.065-2.62c-7.585,0-13.733,6.149-13.733,13.731c0,7.586,6.148,13.734,13.733,13.734
							c3.016,0,5.801-0.975,8.065-2.622C22.268,26.919,20.033,22.874,20.033,18.303z"/>
						<path fill-rule="evenodd" clip-rule="evenodd" fill="#626B8C" d="M33.767,4.571c-3.015,0-5.8,0.974-8.066,2.62
							c3.434,2.497,5.667,6.544,5.667,11.111c0,4.571-2.233,8.616-5.667,11.112c2.267,1.647,5.052,2.622,8.066,2.622
							c2.556,0,4.947-0.698,6.997-1.914l0.012,2.576c0,3.03-1.705,3.03-1.705,3.03H7.247l0,0c-1.848,0-3.345,1.5-3.345,3.347
							c0,1.85,1.498,3.347,3.345,3.347v0.03c0,0,26.898,0,33.243,0c6.346,0,7.01-8.239,7.01-8.239V18.303
							C47.5,10.721,41.352,4.571,33.767,4.571z"/>
					</g>
				</g>
			</g>
		</g>
	</g>
</g>
</svg>
